<?xml version="1.0" encoding="utf-8"?>
<!-- Generator: Adobe Illustrator 17.0.0, SVG Export Plug-In . SVG Version: 6.00 Build 0)  -->
<!DOCTYPE svg PUBLIC "-//W3C//DTD SVG 1.1//EN" "http://www.w3.org/Graphics/SVG/1.1/DTD/svg11.dtd">
<svg version="1.1" id="Layer_1" xmlns="http://www.w3.org/2000/svg" xmlns:xlink="http://www.w3.org/1999/xlink" x="0px" y="0px"
	 width="512px" height="512px" viewBox="0 0 512 512" enable-background="new 0 0 512 512" xml:space="preserve">
<linearGradient id="SVGID_1_" gradientUnits="userSpaceOnUse" x1="-0.1407" y1="515.3592" x2="514.1407" y2="1.1408">
	<stop  offset="0" style="stop-color:#FFDD55"/>
	<stop  offset="0.5" style="stop-color:#FF543E"/>
	<stop  offset="1" style="stop-color:#C837AB"/>
</linearGradient>
<rect x="1" fill="url(#SVGID_1_)" width="512" height="516.5"/>
<path fill="#FFFFFF" d="M255.957,66.965c-77.461,0-151.019-6.891-179.115,65.216c-11.605,29.781-9.92,68.459-9.92,123.84
	c0,48.597-1.557,94.272,9.92,123.819c28.032,72.149,102.187,65.237,179.072,65.237c74.176,0,150.656,7.723,179.093-65.237
	c11.627-30.08,9.92-68.181,9.92-123.819c0-73.856,4.075-121.536-31.744-157.333c-36.267-36.267-85.312-31.723-157.312-31.723
	L255.957,66.965z M239.019,101.035c161.579-0.256,182.144-18.219,170.795,231.317c-4.032,88.256-71.232,78.571-153.835,78.571
	c-150.613,0-154.944-4.309-154.944-154.987c0-152.427,11.947-154.816,137.984-154.944L239.019,101.035z M356.864,132.416
	c-12.523,0-22.677,10.155-22.677,22.677c0,12.523,10.155,22.677,22.677,22.677c12.523,0,22.677-10.155,22.677-22.677
	C379.541,142.571,369.387,132.416,356.864,132.416z M255.957,158.933c-53.611,0-97.067,43.477-97.067,97.088
	s43.456,97.067,97.067,97.067s97.045-43.456,97.045-97.067S309.568,158.933,255.957,158.933L255.957,158.933z M255.957,193.003
	c83.307,0,83.413,126.037,0,126.037C172.672,319.04,172.544,193.003,255.957,193.003z"/>
</svg>
