<svg id="Layer_1" data-name="Layer 1" xmlns="http://www.w3.org/2000/svg" viewBox="0 0 841.89 595.28"><defs><style>.cls-1{font-size:19px;fill:#6e6f72;font-family:MontserratAlternates-Bold, Montserrat Alternates;font-weight:700;letter-spacing:0.9em;}.cls-2{letter-spacing:0.88em;}.cls-3{letter-spacing:0.9em;}.cls-4{letter-spacing:0.9em;}.cls-5{letter-spacing:0.91em;}.cls-6{letter-spacing:0.89em;}.cls-7{fill:#fdc113;}.cls-8{fill:#010101;}</style></defs><title>aapnarshop svg</title><text class="cls-1" transform="translate(257.61 390.72)">g<tspan class="cls-2" x="30.4" y="0">t</tspan><tspan x="55" y="0">e</tspan><tspan class="cls-3" x="84.09" y="0">c</tspan><tspan class="cls-4" x="112.35" y="0">h</tspan><tspan class="cls-5" x="142.58" y="0">n</tspan><tspan x="172.92" y="0">o</tspan><tspan class="cls-6" x="202.46" y="0">l</tspan><tspan x="226.04" y="0">ogies</tspan></text><path class="cls-7" d="M444.51,211.29v5.2a38.94,38.94,0,0,0-32.38-3,38.19,38.19,0,0,0-6.47,3,38.88,38.88,0,0,0,0,67.31,38.19,38.19,0,0,0,6.47,3,38.94,38.94,0,0,0,32.38-3V289h19.43V211.29Zm-19.43,58.28h-3.31l.09-.27a19.43,19.43,0,0,1,0-38.32l-.09-.27h3.31a19.43,19.43,0,1,1,0,38.85Z"/><path class="cls-8" d="M502.74,298.58l-1.5-21-.58-8.06-1-14.43L497,219,495,190l-.56-7.75-.69-9.69H358l-.69,9.69-.56,7.75-2.06,29-2.58,36.09-1,14.43-.58,8.06-1.5,21-.69,9.69h155.1ZM478.17,182.25h6.55l.2,2.8,3,42.56,1.21,17L491,269.5l.95,13.26L493,298.58H358.7l1.13-15.82.95-13.26,1.77-24.93,1.21-17,3-42.56.2-2.8h6.55m3.83,0h96.94"/><path class="cls-8" d="M474.34,153.17v19.39H459.46a38.78,38.78,0,1,0-67.18,0H377.4V153.17a48.47,48.47,0,0,1,96.94,0Z"/><circle class="cls-8" cx="387.1" cy="192.91" r="9.69"/><circle class="cls-8" cx="464.65" cy="192.91" r="9.69"/><path class="cls-7" d="M399.43,355.59l4.46-4.46a6.52,6.52,0,0,0,6.18,3.81c2,0,3.71-1.13,3.71-3.06,0-1.77-1.4-2.74-3.49-3.44l-2.47-.81c-3.81-1.24-6.56-3.87-6.56-8s3.87-7.74,8.6-7.74c4.57,0,7.74,2.1,9.19,4.51l-4.46,3.87a5.14,5.14,0,0,0-4.46-2.58c-1.56,0-2.47.91-2.47,1.93,0,1.24,1,2,2.52,2.53l2.36.81c3.76,1.29,7.84,3.76,7.84,8.86s-4.3,9-10.32,9C404.53,360.91,401,358.38,399.43,355.59Z"/><path class="cls-7" d="M432.35,319.91V336.3c1.28-1.81,3.72-3.46,8.3-3.46,7,0,10.8,4.89,10.8,11.92v16.12h-6.76V345.5c0-4.36-2.07-6.65-6.07-6.65-3.62,0-6.28,2.29-6.28,6.65v15.38h-6.76v-41Z"/><path class="cls-7" d="M455.82,346.4c0-7.54,5.3-14.44,14.6-14.44s14.6,6.9,14.6,14.44-5.3,14.5-14.6,14.5S455.82,354,455.82,346.4Zm6.79,0c0,5.14,3.37,8.45,7.81,8.45s7.81-3.32,7.81-8.45-3.37-8.4-7.81-8.4S462.61,341.31,462.61,346.4Z"/><path class="cls-8" d="M522.3,356.4a4.71,4.71,0,1,1,4.74,4.68A4.82,4.82,0,0,1,522.3,356.4Z"/><path class="cls-8" d="M549.73,354.57a10.14,10.14,0,0,0,8.13-3.66l3.61,5.33c-2,2.21-5.87,4.68-11.79,4.68-8.78,0-14.32-6.3-14.32-14.48S540.9,332,549.67,332c5.92,0,9.75,2.48,11.79,4.68L557.86,342a10.14,10.14,0,0,0-8.13-3.66c-4.47,0-7.54,3.23-7.54,8.13S545.26,354.57,549.73,354.57Z"/><path class="cls-8" d="M563.38,346.45c0-7.56,5.31-14.47,14.63-14.47s14.63,6.91,14.63,14.47S587.34,361,578,361,563.38,354.06,563.38,346.45Zm6.81,0c0,5.14,3.38,8.47,7.83,8.47s7.82-3.32,7.82-8.47S582.46,338,578,338,570.18,341.36,570.18,346.45Z"/><path class="cls-7" d="M264.77,332v1.94a14.51,14.51,0,0,0-12.07-1.11,14.23,14.23,0,0,0-2.41,1.11,14.49,14.49,0,0,0,0,25.09,14.23,14.23,0,0,0,2.41,1.11A14.51,14.51,0,0,0,264.77,359v1.94H272V332Zm-7.24,21.72H256.3l0-.1a7.24,7.24,0,0,1,0-14.28l0-.1h1.24a7.24,7.24,0,0,1,0,14.48Z"/><path class="cls-7" d="M364.77,332v1.94a14.51,14.51,0,0,0-12.07-1.11,14.23,14.23,0,0,0-2.41,1.11,14.49,14.49,0,0,0,0,25.09,14.23,14.23,0,0,0,2.41,1.11A14.51,14.51,0,0,0,364.77,359v1.94H372V332Zm-7.24,21.72H356.3l0-.1a7.24,7.24,0,0,1,0-14.28l0-.1h1.24a7.24,7.24,0,0,1,0,14.48Z"/><path class="cls-7" d="M231.77,332v1.94a14.51,14.51,0,0,0-12.07-1.11,14.23,14.23,0,0,0-2.41,1.11,14.49,14.49,0,0,0,0,25.09,14.23,14.23,0,0,0,2.41,1.11A14.51,14.51,0,0,0,231.77,359v1.94H239V332Zm-7.24,21.72H223.3l0-.1a7.24,7.24,0,0,1,0-14.28l0-.1h1.24a7.24,7.24,0,0,1,0,14.48Z"/><path class="cls-7" d="M294.32,332c-3.62,0-6.6,1.12-8.57,3.25v-.92h0V332H279v.56h0V371.7h6.76V357.34a11.34,11.34,0,0,0,8.57,3.3c7.45,0,13.2-5.69,13.2-14.37S301.77,332,294.32,332Zm-1.49,22.67c-3.88,0-7.4-3-7.4-8.35s3.51-8.3,7.4-8.3c4.42,0,7.93,3,7.93,8.3S297.25,354.62,292.83,354.62Z"/><path class="cls-7" d="M327.7,332.41c-4.48,0-7.13,1.67-8.43,3.51v-2.17h0v-.57h0v-1.24h-6.87v1.24h0v27.7h6.86V345.27c0-4.43,2.7-6.75,6.37-6.75,4.05,0,6.16,2.32,6.16,6.75v15.61h6.86V344.51C338.67,337.38,334.78,332.41,327.7,332.41Z"/><path class="cls-7" d="M391,332.75c-3.47,0-5.23,1.6-6.13,3.25v-2.61h0V332h-6.79v3.94h0v25h6.78V344.44c0-4.37,1.65-5.71,3.47-5.71a3,3,0,0,1,3.15,3.31h6.61C398.4,336.06,395.36,332.75,391,332.75Z"/><path class="cls-7" d="M505.33,332.4c-3.62,0-6.6,1.12-8.57,3.25V333h0V332H490v3.46h0v36.74h6.76V357.78a11.34,11.34,0,0,0,8.57,3.3c7.45,0,13.2-5.69,13.2-14.37S512.78,332.4,505.33,332.4Zm-1.49,22.67c-3.88,0-7.4-3-7.4-8.35s3.51-8.3,7.4-8.3c4.42,0,7.93,3,7.93,8.3S508.26,355.07,503.84,355.07Z"/><path class="cls-8" d="M631.32,332.83c-5.27,0-8.25,1.86-9.84,4.42-1.38-2.55-4.42-4.42-8.83-4.42-4.58,0-7,1.65-8.3,3.46V335h0v-3H597.6v1.55h0v27.4h6.76V345.5c0-4.36,2.66-6.65,6.28-6.65,4,0,5.64,2.29,5.64,6.65v15.38H623V345.5c0-4.36,2.66-6.65,6.07-6.65,4,0,5.85,2.29,5.85,6.65v15.38h6.76V344.75C641.7,337.73,638.29,332.83,631.32,332.83Z"/></svg>