<?xml version="1.0" encoding="utf-8"?>
<!-- Generator: Adobe Illustrator 21.0.0, SVG Export Plug-In . SVG Version: 6.00 Build 0)  -->
<svg version="1.1" id="Layer_1" xmlns="http://www.w3.org/2000/svg" xmlns:xlink="http://www.w3.org/1999/xlink" x="0px" y="0px"
	 viewBox="0 0 595.3 151" style="enable-background:new 0 0 595.3 151;" xml:space="preserve">
<style type="text/css">
	.st0{fill:#6D6E71;}
	.st1{fill:#FFC107;}
	.st2{fill:none;stroke:#000000;stroke-miterlimit:10;}
</style>
<g>
	<g>
		<g>
			<path class="st0" d="M233.5,112.4v6.1c0,2.7-1.5,4-4.1,4c-1.4,0-2.7-0.3-3.6-1l0.8-1.5c0.6,0.5,1.6,0.8,2.6,0.8
				c1.5,0,2.1-0.7,2.1-2v-0.3c-0.6,0.6-1.4,0.9-2.3,0.9c-2,0-3.7-1.4-3.7-3.5c0-2.1,1.6-3.5,3.7-3.5c1,0,1.9,0.3,2.4,1v-0.9H233.5z
				 M231.4,115.8c0-1.1-0.8-1.8-1.9-1.8c-1.1,0-1.9,0.7-1.9,1.8c0,1.1,0.8,1.8,1.9,1.8C230.6,117.6,231.4,116.9,231.4,115.8z"/>
			<path class="st0" d="M252.1,119.3c-0.4,0.3-1.1,0.5-1.7,0.5c-1.7,0-2.7-0.9-2.7-2.6v-6.4h2.1v1.8h1.8v1.6h-1.8v3
				c0,0.6,0.3,1,0.9,1c0.3,0,0.6-0.1,0.9-0.3L252.1,119.3z"/>
			<path class="st0" d="M270.8,117.4l1.1,1.2c-0.7,0.8-1.7,1.2-3,1.2c-2.5,0-4.2-1.6-4.2-3.8c0-2.2,1.7-3.8,3.9-3.8
				c2.1,0,3.8,1.4,3.8,3.7l-5.4,1c0.3,0.7,1,1.1,1.9,1.1C269.8,118.1,270.3,117.9,270.8,117.4z M266.8,115.8l3.6-0.7
				c-0.2-0.7-0.8-1.3-1.7-1.3C267.6,113.9,266.9,114.6,266.8,115.8z"/>
			<path class="st0" d="M285.6,116c0-2.2,1.7-3.8,4.1-3.8c1.5,0,2.7,0.7,3.3,1.9l-1.6,0.9c-0.4-0.7-1-1-1.6-1c-1.1,0-1.9,0.7-1.9,2
				c0,1.3,0.8,2,1.9,2c0.7,0,1.3-0.3,1.6-1l1.6,0.9c-0.5,1.2-1.7,1.8-3.3,1.8C287.3,119.8,285.6,118.2,285.6,116z"/>
			<path class="st0" d="M313.8,115.5v4.2h-2.1v-3.9c0-1.2-0.5-1.7-1.5-1.7c-1,0-1.8,0.6-1.8,2v3.6h-2.1v-10.1h2.1v3.5
				c0.6-0.6,1.4-0.9,2.3-0.9C312.5,112.3,313.8,113.3,313.8,115.5z"/>
			<path class="st0" d="M335.5,115.5v4.2h-2.1v-3.9c0-1.2-0.5-1.7-1.5-1.7c-1,0-1.8,0.6-1.8,2v3.6H328v-7.3h2v0.9
				c0.6-0.6,1.4-1,2.4-1C334.2,112.3,335.5,113.3,335.5,115.5z"/>
			<path class="st0" d="M349.2,116c0-2.2,1.7-3.8,4-3.8c2.3,0,4,1.6,4,3.8c0,2.2-1.7,3.8-4,3.8C350.9,119.8,349.2,118.2,349.2,116z
				 M355,116c0-1.3-0.8-2-1.9-2c-1.1,0-1.9,0.8-1.9,2c0,1.3,0.8,2,1.9,2C354.2,118.1,355,117.3,355,116z"/>
			<path class="st0" d="M370.8,117.3v-7.7h2.1v7.5c0,0.6,0.3,1,0.9,1c0.2,0,0.5-0.1,0.6-0.1l0.1,1.6c-0.4,0.1-0.7,0.2-1.1,0.2
				C371.8,119.8,370.8,118.9,370.8,117.3z"/>
			<path class="st0" d="M387.2,116c0-2.2,1.7-3.8,4-3.8s4,1.6,4,3.8c0,2.2-1.7,3.8-4,3.8S387.2,118.2,387.2,116z M393.1,116
				c0-1.3-0.8-2-1.9-2c-1.1,0-1.9,0.8-1.9,2c0,1.3,0.8,2,1.9,2C392.3,118.1,393.1,117.3,393.1,116z"/>
			<path class="st0" d="M416.4,112.4v6.1c0,2.7-1.5,4-4.1,4c-1.4,0-2.7-0.3-3.6-1l0.8-1.5c0.6,0.5,1.6,0.8,2.6,0.8
				c1.5,0,2.1-0.7,2.1-2v-0.3c-0.6,0.6-1.4,0.9-2.3,0.9c-2,0-3.7-1.4-3.7-3.5c0-2.1,1.6-3.5,3.7-3.5c1,0,1.9,0.3,2.4,1v-0.9H416.4z
				 M414.3,115.8c0-1.1-0.8-1.8-1.9-1.8s-1.9,0.7-1.9,1.8c0,1.1,0.8,1.8,1.9,1.8S414.3,116.9,414.3,115.8z"/>
			<path class="st0" d="M430.4,110.2c0-0.7,0.5-1.2,1.3-1.2c0.8,0,1.3,0.5,1.3,1.1c0,0.7-0.5,1.2-1.3,1.2
				C430.9,111.4,430.4,110.8,430.4,110.2z M430.6,112.4h2.1v7.3h-2.1V112.4z"/>
			<path class="st0" d="M452.5,117.4l1.1,1.2c-0.7,0.8-1.7,1.2-3,1.2c-2.5,0-4.2-1.6-4.2-3.8c0-2.2,1.7-3.8,3.9-3.8
				c2.1,0,3.8,1.4,3.8,3.7l-5.4,1c0.3,0.7,1,1.1,1.9,1.1C451.4,118.1,452,117.9,452.5,117.4z M448.5,115.8l3.6-0.7
				c-0.2-0.7-0.8-1.3-1.7-1.3C449.3,113.9,448.5,114.6,448.5,115.8z"/>
			<path class="st0" d="M467.1,119l0.7-1.5c0.7,0.4,1.6,0.7,2.5,0.7c1,0,1.3-0.3,1.3-0.7c0-1.2-4.4,0-4.4-2.9c0-1.4,1.3-2.4,3.4-2.4
				c1,0,2.1,0.2,2.8,0.6l-0.7,1.5c-0.7-0.4-1.4-0.5-2.1-0.5c-1,0-1.4,0.3-1.4,0.7c0,1.3,4.4,0,4.4,2.9c0,1.4-1.3,2.3-3.5,2.3
				C469,119.8,467.7,119.5,467.1,119z"/>
		</g>
	</g>
</g>
<g>
	<path class="st1" d="M326.5,94.5l3.2-3.2c0.8,1.6,2.3,2.7,4.4,2.7c1.4,0,2.7-0.8,2.7-2.2c0-1.3-1-2-2.5-2.5l-1.8-0.6
		c-2.7-0.9-4.7-2.8-4.7-5.7c0-3,2.8-5.5,6.2-5.5c3.3,0,5.5,1.5,6.6,3.2l-3.2,2.8c-0.8-1.2-1.8-1.8-3.2-1.8c-1.1,0-1.8,0.7-1.8,1.4
		c0,0.9,0.7,1.4,1.8,1.8l1.7,0.6c2.7,0.9,5.6,2.7,5.6,6.3c0,3.7-3.1,6.5-7.4,6.5C330.1,98.4,327.6,96.5,326.5,94.5z"/>
	<path class="st1" d="M350,69v11.7c0.9-1.3,2.7-2.5,5.9-2.5c5,0,7.7,3.5,7.7,8.5v11.5h-4.8v-11c0-3.1-1.5-4.8-4.3-4.8
		c-2.6,0-4.5,1.6-4.5,4.8v11h-4.8V69H350z"/>
	<path class="st1" d="M366.8,88c0-5.4,3.8-10.3,10.5-10.3c6.7,0,10.5,4.9,10.5,10.3c0,5.4-3.8,10.4-10.5,10.4
		C370.6,98.3,366.8,93.4,366.8,88z M371.7,88c0,3.7,2.4,6,5.6,6c3.2,0,5.6-2.4,5.6-6c0-3.6-2.4-6-5.6-6
		C374.1,82,371.7,84.3,371.7,88z"/>
	<path d="M414.4,95.1c0-1.8,1.6-3.4,3.4-3.4c1.8,0,3.4,1.6,3.4,3.4c0,1.8-1.6,3.4-3.4,3.4C416,98.5,414.4,96.9,414.4,95.1z"/>
	<path d="M434,93.8c2.7,0,4.4-1,5.8-2.6l2.6,3.8c-1.5,1.6-4.2,3.4-8.4,3.4c-6.3,0-10.3-4.5-10.3-10.4c0-5.9,4-10.4,10.3-10.4
		c4.2,0,7,1.8,8.4,3.4l-2.6,3.8c-1.4-1.6-3.2-2.6-5.8-2.6c-3.2,0-5.4,2.3-5.4,5.8C428.6,91.5,430.8,93.8,434,93.8z"/>
	<path d="M443.8,88c0-5.4,3.8-10.4,10.5-10.4c6.7,0,10.5,4.9,10.5,10.4c0,5.4-3.8,10.4-10.5,10.4C447.6,98.4,443.8,93.5,443.8,88z
		 M448.7,88c0,3.7,2.4,6.1,5.6,6.1s5.6-2.4,5.6-6.1c0-3.6-2.4-6-5.6-6S448.7,84.4,448.7,88z"/>
	<path class="st1" d="M230.1,77.6V79c-1.5-0.9-3.3-1.4-5.2-1.4c-1.2,0-2.4,0.2-3.5,0.6c-0.6,0.2-1.2,0.5-1.7,0.8
		c-1,0.6-1.9,1.3-2.6,2.1c-0.5,0.5-0.9,1.1-1.2,1.7c-0.9,1.5-1.4,3.3-1.4,5.2c0,1.9,0.5,3.7,1.4,5.2c0.3,0.6,0.7,1.2,1.2,1.7
		c0.7,0.8,1.6,1.6,2.6,2.1c0.5,0.3,1.1,0.6,1.7,0.8c1.1,0.4,2.2,0.6,3.5,0.6c1.9,0,3.7-0.5,5.2-1.4v1.4h5.2V77.6H230.1z M224.9,93.2
		H224c0,0,0,0,0-0.1c-2.5-0.4-4.3-2.5-4.3-5.1c0-2.6,1.9-4.7,4.3-5.1c0,0,0,0,0-0.1h0.9c2.9,0,5.2,2.3,5.2,5.2
		C230.1,90.9,227.8,93.2,224.9,93.2z"/>
	<path class="st1" d="M301.7,77.6V79c-1.5-0.9-3.3-1.4-5.2-1.4c-1.2,0-2.4,0.2-3.5,0.6c-0.6,0.2-1.2,0.5-1.7,0.8
		c-1,0.6-1.9,1.3-2.6,2.1c-0.5,0.5-0.9,1.1-1.2,1.7c-0.9,1.5-1.4,3.3-1.4,5.2c0,1.9,0.5,3.7,1.4,5.2c0.3,0.6,0.7,1.2,1.2,1.7
		c0.7,0.8,1.6,1.6,2.6,2.1c0.5,0.3,1.1,0.6,1.7,0.8c1.1,0.4,2.2,0.6,3.5,0.6c1.9,0,3.7-0.5,5.2-1.4v1.4h5.2V77.6H301.7z M296.5,93.2
		h-0.9c0,0,0,0,0-0.1c-2.5-0.4-4.3-2.5-4.3-5.1c0-2.6,1.9-4.7,4.3-5.1c0,0,0,0,0-0.1h0.9c2.9,0,5.2,2.3,5.2,5.2
		C301.7,90.9,299.3,93.2,296.5,93.2z"/>
	<path class="st1" d="M206.5,77.6V79c-1.5-0.9-3.3-1.4-5.2-1.4c-1.2,0-2.4,0.2-3.5,0.6c-0.6,0.2-1.2,0.5-1.7,0.8
		c-1,0.6-1.9,1.3-2.6,2.1c-0.5,0.5-0.9,1.1-1.2,1.7c-0.9,1.5-1.4,3.3-1.4,5.2c0,1.9,0.5,3.7,1.4,5.2c0.3,0.6,0.7,1.2,1.2,1.7
		c0.7,0.8,1.6,1.6,2.6,2.1c0.5,0.3,1.1,0.6,1.7,0.8c1.1,0.4,2.2,0.6,3.5,0.6c1.9,0,3.7-0.5,5.2-1.4v1.4h5.2V77.6H206.5z M201.3,93.2
		h-0.9c0,0,0,0,0-0.1c-2.5-0.4-4.3-2.5-4.3-5.1c0-2.6,1.9-4.7,4.3-5.1c0,0,0,0,0-0.1h0.9c2.9,0,5.2,2.3,5.2,5.2
		C206.5,90.9,204.2,93.2,201.3,93.2z"/>
	<path class="st1" d="M251.2,77.6c-2.6,0-4.7,0.8-6.1,2.3v-0.7h0v-1.6h-4.8v0.4h0v28h4.8V95.8c1.4,1.5,3.5,2.4,6.1,2.4
		c5.3,0,9.4-4.1,9.4-10.3C260.7,81.7,256.6,77.6,251.2,77.6z M250.2,93.9c-2.8,0-5.3-2.2-5.3-6c0-3.8,2.5-5.9,5.3-5.9
		c3.2,0,5.7,2.2,5.7,5.9C255.8,91.7,253.3,93.9,250.2,93.9z"/>
	<path class="st1" d="M275.1,78c-3.2,0-5.1,1.2-6,2.5v-1.6h0v-0.4h0v-0.9h-4.9v0.9h0v19.8h4.9V87.2c0-3.2,1.9-4.8,4.6-4.8
		c2.9,0,4.4,1.7,4.4,4.8v11.2h4.9V86.6C283,81.5,280.2,78,275.1,78z"/>
	<path class="st1" d="M320.5,78.2c-2.5,0-3.7,1.1-4.4,2.3v-1.9h0v-1h-4.9v2.8h0v17.9h4.8V86.6c0-3.1,1.2-4.1,2.5-4.1
		c1.4,0,2.3,1,2.3,2.4h4.7C325.7,80.6,323.6,78.2,320.5,78.2z"/>
	<path class="st1" d="M402.3,77.9c-2.6,0-4.7,0.8-6.1,2.3v-1.9h0v-0.8h-4.8v2.5h0v26.3h4.8V96.1c1.4,1.5,3.5,2.4,6.1,2.4
		c5.3,0,9.4-4.1,9.4-10.3C411.7,82,407.6,77.9,402.3,77.9z M401.2,94.2c-2.8,0-5.3-2.2-5.3-6c0-3.8,2.5-5.9,5.3-5.9
		c3.2,0,5.7,2.2,5.7,5.9C406.9,92,404.3,94.2,401.2,94.2z"/>
	<path d="M492.4,78.3c-3.8,0-5.9,1.3-7,3.2c-1-1.8-3.2-3.2-6.3-3.2c-3.3,0-5,1.2-5.9,2.5v-1h0v-2.2h-4.8v1.1h0v19.6h4.8v-11
		c0-3.1,1.9-4.8,4.5-4.8c2.9,0,4,1.6,4,4.8v11h4.8v-11c0-3.1,1.9-4.8,4.3-4.8c2.9,0,4.2,1.6,4.2,4.8v11h4.8V86.8
		C499.9,81.8,497.4,78.3,492.4,78.3z"/>
</g>
<g>
	<path d="M186.6,127.4l-0.9-12.5l-0.3-4.8l-0.6-8.5l-1.5-21.4L182,63.1l-0.3-4.6l-0.4-5.7h-80.4l-0.4,5.7l-0.3,4.6l-1.2,17.2
		l-1.5,21.4l-0.6,8.5l-0.3,4.8l-0.9,12.5l-0.4,5.7H187L186.6,127.4z M172,58.5h3.9l0.1,1.7l1.8,25.2l0.7,10l1.1,14.8l0.6,7.9
		l0.7,9.4h-79.6l0.7-9.4l0.6-7.9l1.1-14.8l0.7-10l1.8-25.2l0.1-1.7h3.9 M112.3,58.5h5.7c0,0,0,0,0,0h51.7"/>
	<path d="M169.8,41.3v11.5h-8.8c2-3.4,3.1-7.3,3.1-11.5c0-12.7-10.3-23-23-23s-23,10.3-23,23c0,4.2,1.1,8.1,3.1,11.5h-8.8V41.3
		c0-6.5,2.1-12.4,5.7-17.2c5.2-7,13.6-11.5,23-11.5s17.7,4.5,23,11.5C167.6,28.9,169.8,34.8,169.8,41.3z"/>
	<circle cx="118.1" cy="64.8" r="5.7"/>
	<circle cx="164" cy="64.8" r="5.7"/>
	<path class="st1" d="M152.1,75.7v3.1c-3.4-2-7.3-3.1-11.5-3.1c-2.7,0-5.3,0.5-7.7,1.3c-1.3,0.5-2.6,1.1-3.8,1.8
		c-2.2,1.3-4.1,2.8-5.8,4.7c-1,1.1-1.9,2.4-2.7,3.7c-2,3.4-3.1,7.3-3.1,11.5s1.1,8.1,3.1,11.5c0.8,1.3,1.7,2.6,2.7,3.7
		c1.6,1.9,3.6,3.5,5.8,4.7c1.2,0.7,2.5,1.3,3.8,1.8c2.4,0.8,5,1.3,7.7,1.3c4.2,0,8.1-1.1,11.5-3.1v3.1h11.5v-46H152.1z M140.9,110.7
		c-6.5,0-11.8-5.3-11.8-11.8S134.3,87,140.9,87c6.5,0,11.8,5.3,11.8,11.8S147.4,110.7,140.9,110.7z"/>
</g>
</svg>
