<?xml version="1.0" encoding="utf-8"?>
<!-- Generator: Adobe Illustrator 21.0.0, SVG Export Plug-In . SVG Version: 6.00 Build 0)  -->
<svg version="1.1" id="Layer_1" xmlns="http://www.w3.org/2000/svg" xmlns:xlink="http://www.w3.org/1999/xlink" x="0px" y="0px"
	 viewBox="0 0 512 512" style="enable-background:new 0 0 512 512;" xml:space="preserve">
<style type="text/css">
	.st0{fill:#FFC107;}
</style>
<path class="st0" d="M279,414.5l-68,39.3V253.3l173-100.3v146.7c5.9,1.4,11,5.3,14,10.4V181.2h0V141c0.1-2.5-1.2-4.8-3.3-6.1
	L207.1,26.6c-2.2-1.3-4.8-1.3-7,0L12.5,134.9c-2.2,1.3-3.5,3.6-3.5,6.1v216.7c0,2.5,1.3,4.8,3.5,6.1l187.7,108.3
	c1.1,0.6,2.3,0.9,3.5,0.9c1.3,0,2.5-0.3,3.6-0.9l82.5-47.6C285.2,422.5,281.4,418.9,279,414.5z M203.7,40.7l78,45L108,186l-78-45
	L203.7,40.7z M197,453.9L23,353.6V153.1l174,100.3V453.9z M203.7,241.2L122,194.1L295.6,93.8l81.7,47.2L203.7,241.2z"/>
<g>
	<path class="st0" d="M344.9,456c-47.6,0-86.2-38.7-86.2-86.2s38.7-86.2,86.2-86.2s86.2,38.7,86.2,86.2S392.5,456,344.9,456z
		 M344.9,294.3c-41.6,0-75.5,33.9-75.5,75.5s33.9,75.5,75.5,75.5s75.5-33.9,75.5-75.5S386.6,294.3,344.9,294.3z"/>
	<path class="st0" d="M382.7,375.2h-75.5c-3,0-5.4-2.4-5.4-5.4c0-3,2.4-5.4,5.4-5.4h75.5c3,0,5.4,2.4,5.4,5.4
		C388.1,372.8,385.6,375.2,382.7,375.2z"/>
	<path class="st0" d="M344.9,412.9c-3,0-5.4-2.4-5.4-5.4V332c0-3,2.4-5.4,5.4-5.4s5.4,2.4,5.4,5.4v75.5
		C350.3,410.5,347.9,412.9,344.9,412.9z"/>
</g>
</svg>
