<!DOCTYPE svg PUBLIC "-//W3C//DTD SVG 20010904//EN" "http://www.w3.org/TR/2001/REC-SVG-20010904/DTD/svg10.dtd">
<svg version="1.0" xmlns="http://www.w3.org/2000/svg" width="1200px" height="156px" viewBox="0 0 12000 1560" preserveAspectRatio="xMidYMid meet">
<g id="layer101" fill="#ffecb4" stroke="none">
 <path d="M0 780 l0 -780 6000 0 6000 0 0 780 0 780 -6000 0 -6000 0 0 -780z"/>
 </g>
<g id="layer102" fill="#ffffff" stroke="none">
 <path d="M0 780 l0 -780 3285 0 c1807 0 3285 2 3285 4 0 3 -30 44 -67 93 -283 374 -525 847 -667 1306 -25 81 -46 150 -46 152 0 3 -1303 5 -2895 5 l-2895 0 0 -780z"/>
 <path d="M7785 1513 c292 -509 754 -892 1290 -1069 1033 -339 2146 101 2700 1069 l27 47 -2022 0 -2022 0 27 -47z"/>
 </g>

</svg>