<?xml version="1.0" encoding="utf-8"?>
<!-- Generator: Adobe Illustrator 21.0.0, SVG Export Plug-In . SVG Version: 6.00 Build 0)  -->
<svg version="1.1" id="Capa_1" xmlns="http://www.w3.org/2000/svg" xmlns:xlink="http://www.w3.org/1999/xlink" x="0px" y="0px"
	 viewBox="0 0 512 512" style="enable-background:new 0 0 512 512;" xml:space="preserve">
<style type="text/css">
	.st0{fill:#FFC107;}
</style>
<g>
	<path class="st0" d="M336.7,88.6h0.9c4.1,0,7.5-3.4,7.5-7.5s-3.4-7.5-7.5-7.5h-0.9c-4.1,0-7.5,3.4-7.5,7.5S332.5,88.6,336.7,88.6z"
		/>
	<path class="st0" d="M360.7,88.6h0.9c4.1,0,7.5-3.4,7.5-7.5s-3.4-7.5-7.5-7.5h-0.9c-4.1,0-7.5,3.4-7.5,7.5S356.5,88.6,360.7,88.6z"
		/>
	<path class="st0" d="M113.3,88.6h-0.9c-4.1,0-7.5,3.4-7.5,7.5s3.4,7.5,7.5,7.5h0.9c4.1,0,7.5-3.4,7.5-7.5S117.4,88.6,113.3,88.6z"
		/>
	<path class="st0" d="M113.3,110h-0.9c-4.1,0-7.5,3.4-7.5,7.5s3.4,7.5,7.5,7.5h0.9c4.1,0,7.5-3.4,7.5-7.5S117.4,110,113.3,110z"/>
	<path class="st0" d="M256.1,118.3c4.1,0,7.5-3.4,7.5-7.5V67.3c0-4.1-3.4-7.5-7.5-7.5s-7.5,3.4-7.5,7.5v43.5
		C248.6,114.9,251.9,118.3,256.1,118.3z"/>
	<path class="st0" d="M232.8,88.3c4.1,0,7.5-3.4,7.5-7.5V67.3c0-4.1-3.4-7.5-7.5-7.5s-7.5,3.4-7.5,7.5v13.5
		C225.3,84.9,228.6,88.3,232.8,88.3z"/>
	<path class="st0" d="M497.4,0h-40.9c-4.1,0-7.5,3.4-7.5,7.5v139h-16.5v-35c0-6.9-5.6-12.5-12.5-12.5h-11.7V63.3
		c0-6.5-5.3-11.9-11.9-11.9h-103V37.2c0-6.6-5.4-12-12-12H169.1c-6.6,0-12,5.4-12,12v29.3H88.9c-6.5,0-11.9,5.3-11.9,11.9v68.1H62.9
		V7.5c0-4.1-3.4-7.5-7.5-7.5H14.6c-4.1,0-7.5,3.4-7.5,7.5v497c0,4.1,3.4,7.5,7.5,7.5h40.9c4.1,0,7.5-3.4,7.5-7.5v-23.9h386.1v23.9
		c0,4.1,3.4,7.5,7.5,7.5h40.9c4.1,0,7.5-3.4,7.5-7.5V7.5C504.9,3.4,501.6,0,497.4,0L497.4,0z M62.9,413.8h386.1v11.2H62.9V413.8z
		 M180.1,305h26.7c6.3,0,11.5-5.2,11.5-11.5v-15h12.7v40.2h-35.6c-6.5,0-11.9,5.3-11.9,11.9v18.1c0,4.1,3.4,7.5,7.5,7.5
		s7.5-3.4,7.5-7.5v-14.9h80v13.9h-22.5c-6.5,0-11.9,5.3-11.9,11.9v16.2c0,6.5,5.3,11.9,11.9,11.9h22.5v11.2h-80v-16.1
		c0-4.1-3.4-7.5-7.5-7.5s-7.5,3.4-7.5,7.5v16.1h-24.7v-91.3c0-6.6-5.4-12-12-12h-16.3v-17h38v15C168.6,299.8,173.8,305,180.1,305
		L180.1,305z M183.6,290v-11.5h19.7V290H183.6z M421.7,398.8h-67.3v-32.5h67.3L421.7,398.8L421.7,398.8z M385,351.2h-14.8v-31.7
		c0-4.1-3.4-7.5-7.5-7.5s-7.5,3.4-7.5,7.5v31.7h-3.3c-6.9,0-12.5,5.6-12.5,12.5v35h-45.8v-68.1c0-6.5-5.3-11.9-11.9-11.9h-3v-26.3
		H385V351.2z M278.6,372.5h-19.4v-9.9h19.4V372.5z M117.1,348.8c4.1,0,7.5-3.4,7.5-7.5v-30.8h19.3v88.3H90.3v-88.3h19.3v30.8
		C109.6,345.4,113,348.8,117.1,348.8z M62.9,187.7h386.1v25.7H62.9L62.9,187.7z M393.3,66.5V99h-45.6c-6.9,0-12.5,5.6-12.5,12.5v35
		h-41.8v-80H393.3z M172.1,40.2h106.3v106.3H187V78.3c0-6.5-5.3-11.9-11.9-11.9h-3V40.2z M172,120.3h-19.4v-9.9H172V120.3z M92,81.5
		h80v13.9h-22.5c-6.5,0-11.9,5.3-11.9,11.9v16.2c0,6.5,5.3,11.9,11.9,11.9H172v11.2H92V81.5z M359.3,161.5c4.1,0,7.5-3.4,7.5-7.5
		s-3.4-7.5-7.5-7.5h-9.1V114h67.3v32.5h-24.2c-4.1,0-7.5,3.4-7.5,7.5s3.4,7.5,7.5,7.5h55.7v11.2H62.9v-11.2H359.3z M47.9,497H22.1
		V15h25.9v229.7c0,4.1,3.4,7.5,7.5,7.5s7.5-3.4,7.5-7.5v-16.3h386.1v170.4h-12.4v-35c0-6.9-5.6-12.5-12.5-12.5H400v-61.8
		c0-6.6-5.4-12-12-12H275.6c-6.6,0-12,5.4-12,12v29.3h-17.6V276c0-6.9-5.6-12.5-12.5-12.5H128.1c-6.9,0-12.5,5.6-12.5,12.5v19.5
		H87.3c-6.6,0-12,5.4-12,12v91.3H62.9V278.7c0-4.1-3.4-7.5-7.5-7.5s-7.5,3.4-7.5,7.5L47.9,497z M62.9,465.6v-25.7h386.1v25.7
		L62.9,465.6z M489.9,497h-25.9V15h25.9V497z"/>
	<path class="st0" d="M218.9,355.9h0.9c4.1,0,7.5-3.4,7.5-7.5s-3.4-7.5-7.5-7.5h-0.9c-4.1,0-7.5,3.4-7.5,7.5
		S214.8,355.9,218.9,355.9z"/>
	<path class="st0" d="M218.9,377.3h0.9c4.1,0,7.5-3.4,7.5-7.5s-3.4-7.5-7.5-7.5h-0.9c-4.1,0-7.5,3.4-7.5,7.5
		S214.8,377.3,218.9,377.3z"/>
	<path class="st0" d="M339.3,340.5c4.1,0,7.5-3.4,7.5-7.5v-13.5c0-4.1-3.4-7.5-7.5-7.5s-7.5,3.4-7.5,7.5V333
		C331.8,337.2,335.2,340.5,339.3,340.5z"/>
</g>
</svg>
